<svg fill="none" height="37" viewBox="0 0 34 37" width="34" xmlns="http://www.w3.org/2000/svg"><path d="m16.932 0c.3437 0 .6833.077929.9932.226673.7035.296051 1.3945.951807 2.0493 1.817257.6572.86854 1.2905 1.96397 1.878 3.16083 1.1336 2.30928 2.1007 5.01294 2.7395 7.23324 1.0701-1.0382 2.3879-1.7857 3.8286-2.1718.7276-.2165 1.5015-.2226 2.2322-.0165.7319.2064 1.3903.6171 1.8993 1.1837 1.2048 1.3434 1.6425 3.5733 1.3697 6.6229-.2733 3.0558-1.2628 6.9686-2.9544 11.7154-.1105.3062-.338.5571-.6321.6955-.294.1382-.6307.1533-.9361.0426-.1524-.0523-.2933-.1345-.4133-.2422-.1208-.1084-.2187-.2403-.2875-.3875s-.1075-.3073-.1133-.4698c-.0057-.1619.0216-.3233.0794-.4746l.3862-1.0714c1.8517-5.2407 2.4956-8.6952 2.5856-10.9559.096-2.4117-.4389-3.448-.7918-3.8515-.2199-.2304-.503-.3911-.8131-.4611-.3123-.0704-.6386-.046-.9371.0698l-.0106.0039c-1.4717.4409-2.7558 1.3591-3.6505 2.6106.6827 2.7926 1.2701 5.7829 1.4685 8.3985.1 1.3181.1017 2.5454-.0339 3.6064-.1348 1.0557-.4079 1.958-.8654 2.6223-.2176.3533-.5142.6514-.8663.8698-.352.2183-.7495.3521-1.1617.3895-.3382.031-.6791-.0237-.9912-.1579-.3121-.1343-.586-.3442-.7967-.6113-.5102-.5901-.82-1.5541-.9903-2.6958-.1717-1.1514-.2052-2.509-.1471-3.9048.1161-2.7913.601-5.757 1.1103-7.5732.1319-.4754.3227-.932.5653-1.361l-.2856-1.0879c-.8475-3.1437-1.9843-5.94736-3.0367-7.97904-.5264-1.01623-1.0302-1.83569-1.4636-2.40719-.2169-.28603-.4132-.50661-.5837-.65774-.1429-.12666-.2555-.19285-.3369-.21892-.0606.051-.1383.1402-.2246.27898-.1087.17474-.2253.42016-.332.74686-.2134.65338-.3867 1.62544-.3921 2.99227-.0106 2.73358.6513 7.03528 2.9932 13.50448.1122.2974.1025.6277-.0262.9183-.1287.2904-.3659.5188-.6611.6345l-.001-.001c-.2897.1172-.6132.1199-.9041.0059-.2915-.1144-.5277-.3371-.6612-.621l-.001-.0009c-4.3727-9.5619-6.6825-13.08439-7.71125-14.30853-.15337 1.14582-.04162 2.97439.6418 5.54573.74695 2.8106 2.17255 6.499 4.66495 11.1351.1519.2752.1918.5993.1093.9028-.0825.3036-.2803.5629-.5508.7226l-.0009-.0009c-.2673.1654-.5879.2209-.8945.152-.3077-.0691-.5761-.2567-.7473-.5221-1.3668-2.0522-2.94227-4.4323-4.36966-6.5096-1.28751-1.8736-2.45029-3.4922-3.22837-4.4046-.01272 1.9126.81768 6.371 5.37153 13.2565.1868.2666.2601.5962.2053.9174-.0551.3222-.2354.6092-.50147.7982-.26615.1889-.59626.2644-.91769.2092-.32157-.0553-.60842-.2366-.79668-.5037l-.00388-.0049c-1.47917-2.2974-3.39994-4.2737-5.64842-5.815.69763 2.8769 2.08586 5.5376 4.04441 7.7485l.41625.4543.00677.0068.21975.2548c1.11738 1.2542 2.52111 2.2204 4.09276 2.815 1.675.6336 3.4842.8233 5.2535.5512.157-.0319.319-.0316.4763-.001.1579.0307.3082.0922.4424.1812.1341.089.2498.2034.3397.3371.0676.1003.1195.2102.1549.3254l.03.1173.001.0029c.0576.3213-.0129.6528-.1955.9231-.1826.2702-.4633.4578-.7822.5231l-.0019.001c-.7181.1399-1.4476.2134-2.1791.2189h-.0106c-2.2492-.1401-4.435-.8055-6.38316-1.9422-1.94611-1.1355-3.60164-2.7108-4.83529-4.6003l-.42883-.618c-.98631-1.4741-1.86106-3.1559-2.425871-4.6943-.322667-.8789-.546038-1.7162-.6292158-2.444-.0826903-.7236-.02965045-1.3599.2236138-1.8211l.000968-.002c.15171-.2694.368604-.4965.630184-.6606.261481-.1639.559551-.2602.867351-.279h.01258l.35043.0232c.63782.0691 1.24876.2873 1.78891.6316-.90747-2.23-1.39102-4.1153-1.56627-5.6164-.18693-1.6015-.02883-2.7843.34849-3.4728.12895-.2793.33247-.5178.58856-.6877.2584-.1714.55961-.2669.86929-.2751l.17231-.0029c.17264.0027.34503.0256.5266.0842.24087.0778.49002.2164.77539.4427.48397.3839 1.08731 1.032 1.9496 2.1001-1.34261-4.85282-.83573-7.37691-.42786-8.39558l.08325-.1918c.12333-.30459.33446-.56531.60598-.74977.24434-.16597.52767-.26283.82089-.28188l.02129-.00388h.08616l.00968.00194c.15091.00512.3388.02742.5721.12593.2823.11926.62242.34489 1.04547.76526.7828.77794 1.8672 2.24233 3.421 4.99359-.2947-2.47746-.2074-4.43971.1423-5.92837.3846-1.63712 1.0895-2.715995 1.9631-3.262543l.0136-.007749c.3121-.1512954.6543-.23048232 1.0009-.230548zm6.8575 20.0247c-.2391 1.7701-.3581 3.5942-.3581 5.1312 0 .8912.0403 1.683.12 2.3103.0398.3137.0888.5844.1471.804.0382.1438.0804.2615.123.3545.0311-.0268.0595-.0561.0803-.0872.3149-.4708.5418-1.4261.5373-2.9729-.0041-1.3783-.1937-3.2064-.6496-5.5399z" fill="#000"/></svg>